<?xml version="1.0" encoding="UTF-8"?>
<svg id="Layer_1" data-name="Layer 1" xmlns="http://www.w3.org/2000/svg" viewBox="0 0 936.72 559.2">
  <defs>
    <style>
      .cls-1 {
        fill: #181818;
        stroke-width: 0px;
      }
    </style>
  </defs>
  <path class="cls-1" d="m922.57,412.93l-19.05-5.65c-12.35-3.57-24.7,5.8-24.55,18.75v1.93c0,60.71-25.59,91.07-76.48,91.07s-78.12-47.02-81.39-140.91c-.45-11.01,8.18-20.09,19.2-20.09h177.22c11.01,0,19.64-9.23,19.2-20.24-5.06-139.43-64.13-209.22-177.37-209.22-37.35,0-70.38,9.23-98.8,27.83-27.97-18.45-72.76-27.53-134.67-27.53-31.84,0-59.52,2.38-82.88,7.14-2.38-40.03-20.68-72.17-55.5-96.72C350.28,13.09,300.73,0,238.68,0H19.05C8.48,0,0,8.63,0,19.2v516.79c0,10.57,8.48,19.05,19.05,19.05h122.76c10.56,0,19.2-8.48,19.2-19.05v-228.56c0-10.57,8.48-19.05,19.2-19.05h8.48c51.49,0,77.23,31.99,77.23,95.98l.74,41.37.89,33.03c0,31.99,3.87,59.67,11.46,82.88,2.68,7.89,9.97,13.39,18.45,13.39h109.96c12.8,2.68,26.93,4.02,42.41,4.02,37.05,0,67.11-10.56,90.32-31.69,8.18-7.44,20.39-6.84,27.53,1.49,16.07,18.75,43.75,28.12,83.03,28.12,16.37,0,33.03-1.64,50-4.91h.15c20.83,4.76,43.9,7.14,69.49,7.14,98.95,0,154.31-41.66,165.77-124.84,1.34-9.67-4.32-18.75-13.54-21.43Zm-200.58-137.94c3.27-70.68,17.86-106.1,43.9-106.1s40.92,41.07,42.86,123.36c.3,10.71-8.33,19.79-19.2,19.79h-49.1c-11.01,0-19.64-9.08-19.2-20.09l.74-16.96Zm-528.54-32.59h-13.24c-10.71,0-19.2-8.63-19.2-19.2V70.38c0-10.57,8.48-19.2,19.2-19.2h13.24c61.01,0,91.51,31.84,91.51,95.68s-30.5,95.53-91.51,95.53Zm353.11,179.16c0,53.72-15.48,80.5-46.43,80.5-21.13,0-31.69-27.08-31.69-81.25,0-42.26,15.33-72.47,45.98-90.32.89-.45,1.79-1.04,2.83-1.64,12.8-7.89,29.31,1.04,29.31,16.22v76.48Zm-107.73-111.3c-13.39,4.17-25.59,8.78-36.75,14.14-7.14-10.42-19.34-20.39-36.16-29.76-11.76-6.4-13.24-22.32-4.17-30.51,1.34-1.49,2.98-2.53,4.91-3.42,18.9-8.78,34.22-19.64,46.13-32.59,13.99-15.18,23.21-33.18,27.38-54.02,11.46-6.1,26.34-9.08,44.94-9.08,41.81,0,62.65,20.98,62.65,63.09,0,31.99-36.31,59.37-108.92,82.14Z"/>
</svg>